<svg xmlns="http://www.w3.org/2000/svg" version="1.1" xmlns:xlink="http://www.w3.org/1999/xlink" width="1000" height="100" viewBox="0 0 587 100">
  <rect width="100%" height="100%" fill="transparent"></rect>
  <path fill="#fff" d="M56.835 6.625v72.1q0 9.89-6.58 14.77-3.18 2.31-6.53 3.6-3.36 1.28-6.53 1.28h-11.71q-3.17 0-6.53-1.28-3.35-1.29-6.52-3.6-6.47-4.76-6.47-14.77v-8.05q0-5.73 7.08-5.73 7.32 0 7.32 5.73v7.08q0 3.17 1.83 5.73 1.83 2.56 6.34 2.56h5.61q4.52 0 6.35-2.56t1.83-5.73V6.625q0-5.85 7.19-5.85 7.32 0 7.32 5.85m39.17-5.24h26.59q3.17 0 6.59 1.34t6.59 3.41h-.12q3.17 2.32 4.88 6.04 1.7 3.72 1.7 8.6v57.95q0 9.89-6.58 14.77-3.18 2.31-6.53 3.6-3.36 1.28-6.53 1.28h-26.59q-3.18 0-6.53-1.28-3.36-1.29-6.53-3.6-3.17-2.44-4.88-6.04t-1.71-8.73v-57.95q0-4.88 1.71-8.6 1.71-3.72 4.88-6.04h-.12q3.17-2.07 6.59-3.41 3.41-1.34 6.59-1.34m3.05 84.66h20.49q4.52 0 6.35-2.56t1.83-5.73v-55.88q0-3.05-1.83-5.61-1.83-2.56-6.35-2.56h-20.49q-4.52 0-6.35 2.56t-1.83 5.61v55.88q0 3.17 1.83 5.73 1.83 2.56 6.35 2.56m112.24-8.29v-15.5q0-2.8-2.08-5.42-2.07-2.63-7.32-2.99-3.41 4.14-8.29 4.14-4.15 0-7.08-2.92-2.93-2.93-2.93-7.2t2.93-7.2q2.93-2.93 7.08-2.93 2.19 0 4.33 1.22 2.13 1.22 3.84 2.93 2.68-.12 4.15-.85 1.46-.74 2.13-1.77.67-1.04.8-2.38.12-1.34.12-2.69v-12.32q0-3.05-1.89-5.61-1.89-2.56-6.41-2.56h-25.5l-.12 80.52q0 2.44-2.26 3.72-2.25 1.28-4.94 1.28-7.19 0-7.19-5.86V8.705q0-4.4 2.25-5.86 2.26-1.46 5.43-1.46h35.38q3.17 0 6.77 1.22 3.6 1.22 6.77 3.29h-.12q3.17 2.32 4.7 6.1 1.52 3.78 1.52 8.78v13.79q0 4.88-2.07 7.99-2.07 3.11-4.39 4.94 1.58.98 3.05 2.02 1.46 1.03 2.44 2.25 1.58 1.71 2.5 4.03.91 2.32.91 5.49v17.44q0 10.01-7.8 14.77-3.91 2.44-7.39 3.66-3.47 1.22-6.89 1.22h-18.05q-2.08 0-3.24-1.71-1.16-1.71-1.16-4.52 0-6.1 5.13-6.1h16.71q4.52 0 6.35-2.56t1.83-5.73m123.46-5.13v-66q0-5.85 7.2-5.85t7.2 5.85v84.18q0 4.27-4.52 6.22h.12q-1.95.86-4.14 1.35-2.2.48-4.27.48-1.59 0-3.3-.3-1.71-.31-3.23-.98-1.53-.67-2.81-1.83-1.28-1.16-2.01-2.86l-26.47-66.01-3.3.37v65.88q0 5.86-7.32 5.86-7.2 0-7.2-5.86V9.065q0-5 4.4-6.71 4.02-1.58 8.54-1.58 3.17 0 6.4 1.28 3.23 1.28 4.94 4.82l26.35 66.12zm85.03 25.75h-44.65q-4.51 0-6.1-2.32-1.58-2.32-1.58-5.13V8.705q0-2.81 1.58-5.07 1.59-2.25 6.1-2.25h42.46q4.51 0 4.76 6.1.24 6.22-4.76 6.22h-35.75v72.34h37.94q4.52 0 4.64 5.98.24 6.35-4.64 6.35m-6.71-50.51q0 4.27-2.99 7.2-2.98 2.92-7.25 2.92-4.15 0-7.08-2.92-2.93-2.93-2.93-7.2t2.93-7.2q2.93-2.93 7.08-2.93 4.27 0 7.25 2.93 2.99 2.93 2.99 7.2m47.22-5.37h23.54q3.18 0 6.59 1.34 3.42 1.34 6.59 3.54h-.12q3.17 2.2 4.88 5.98 1.71 3.78 1.71 8.66v16.71q0 9.89-6.59 14.77-3.17 2.31-6.53 3.6-3.35 1.28-6.53 1.28h-26.59q-3.17 0-6.53-1.28-3.35-1.29-6.53-3.6-6.58-4.88-6.58-14.77v-8.05q0-5.73 7.19-5.73 7.32 0 7.32 5.73v7.08q0 3.17 1.83 5.73 1.83 2.56 6.35 2.56h20.49q4.52 0 6.35-2.56t1.83-5.73v-14.76q0-3.05-1.83-5.68-1.83-2.62-6.35-2.62h-23.54q-6.35 0-13.06-4.64-6.58-5.12-6.58-14.76v-14.52q0-4.88 1.7-8.6 1.71-3.72 4.88-6.04h-.12q3.17-2.07 6.59-3.41 3.42-1.34 6.59-1.34h26.59q3.18 0 6.59 1.34 3.42 1.34 6.59 3.41h-.12q3.17 2.32 4.88 6.04t1.71 8.6v7.2q0 5.74-7.32 5.74-7.2 0-7.2-5.74v-6.1q0-3.05-1.83-5.61-1.83-2.56-6.35-2.56h-20.49q-4.52 0-6.35 2.56t-1.83 5.61v12.45q0 3.17 1.83 5.67t6.35 2.5m94.91-28.79v79.66q0 5.86-7.32 5.86-7.19 0-7.19-5.86v-79.66h-21.35q-4.4 0-4.64-6.22 0-6.1 4.64-6.1h57.21q4.64 0 4.4 6.1 0 6.22-4.4 6.22z"></path>
</svg>
